name analog
datacolumns 19
datarows 31
range 0.2935 0.3085
endheader
time	ground_force_vx	ground_force_vy	ground_force_vz	ground_force_px	ground_force_py	ground_force_pz	l_ground_force_vx	l_ground_force_vy	l_ground_force_vz	l_ground_force_px	l_ground_force_py	l_ground_force_pz	ground_torque_x	ground_torque_y	ground_torque_z	l_ground_torque_x	l_ground_torque_y	l_ground_torque_z
0.2935	-0.0	-0.0	-0.0	53.79393768310547	72.16372680664062	-607.1163330078125	59.04956817626953	-68.08769989013672	-680.812744140625	-35.29563522338867	16.1452579498291	76.38231658935547	-0.0	-0.0	-0.0	136283.46875	-19560.7734375	577.1365356445312
0.294	-0.0	-0.0	-0.0	52.92522811889648	73.1930160522461	-608.4617919921875	60.91254806518555	-70.56721496582031	-684.5613403320312	-35.295654296875	16.1859130859375	74.78643035888672	-0.0	-0.0	-0.0	136842.953125	-19150.58984375	971.8387451171876
0.2945	-0.0	-0.0	-0.0	51.96084213256836	74.56185150146484	-609.39501953125	60.42898941040039	-73.42683410644531	-686.78125	-35.21487808227539	16.040685653686523	76.25839233398438	-0.0	-0.0	-0.0	136895.78125	-18441.326171875	1148.7275390625
0.295	-0.0	-0.0	-0.0	49.17226409912109	76.01960754394531	-610.0670776367188	60.21163558959961	-76.15618133544922	-687.8959350585938	-35.49756622314453	16.07274055480957	75.20643615722656	-0.0	-0.0	-0.0	137130.765625	-17760.576171875	1333.5255126953125
0.2955	-0.0	-0.0	-0.0	46.77227783203125	77.89997863769531	-612.9951782226562	60.163047790527344	-78.67755889892578	-690.4304809570312	-35.16592025756836	15.96521282196045	75.613037109375	-0.0	-0.0	-0.0	137182.53125	-16657.3515625	1522.270263671875
0.296	-0.0	-0.0	-0.0	44.30611801147461	79.49559020996094	-613.120361328125	59.27608871459961	-81.1019515991211	-692.59326171875	-35.34113311767578	16.01459503173828	75.75129699707031	-0.0	-0.0	-0.0	137041.265625	-15748.8662109375	1316.2779541015625
0.2965	-0.0	-0.0	-0.0	41.96913909912109	80.89520263671875	-611.797119140625	56.712345123291016	-84.06489562988281	-692.771240234375	-35.398868560791016	16.203481674194336	75.13866424560547	-0.0	-0.0	-0.0	137175.453125	-14637.072265625	849.574462890625
0.297	-0.0	-0.0	-0.0	39.917293548583984	82.51712036132812	-613.4036865234375	54.011077880859375	-85.65464782714844	-693.7642822265625	-35.586647033691406	16.230382919311523	76.12165832519531	-0.0	-0.0	-0.0	136999.984375	-13395.787109375	348.801025390625
0.2975	-0.0	-0.0	-0.0	37.63337707519531	84.49562072753906	-615.010009765625	51.30126190185547	-86.76290130615234	-694.9342651367188	-35.39859390258789	16.311620712280273	76.03402709960938	-0.0	-0.0	-0.0	136834.3125	-11683.89453125	47.057106018066406
0.298	-0.0	-0.0	-0.0	34.827999114990234	86.05989074707031	-616.0691528320312	47.744171142578125	-88.15824890136719	-696.5574951171875	-35.067718505859375	16.20761489868164	75.38359832763672	-0.0	-0.0	-0.0	136638.71875	-10010.0400390625	-635.1040649414062
0.2985	-0.0	-0.0	-0.0	32.856449127197266	87.56613159179688	-617.9061279296875	44.09386444091797	-90.64005279541016	-695.3529663085938	-35.26479721069336	16.194534301757812	75.40393829345703	-0.0	-0.0	-0.0	135920.125	-8042.3671875	-1267.2166748046875
0.299	-0.0	-0.0	-0.0	30.56820297241211	89.07604217529297	-619.9535522460938	40.24882888793945	-93.80157470703124	-696.6635131835938	-35.206485748291016	16.15415382385254	75.52656555175781	-0.0	-0.0	-0.0	135323.6875	-5666.4326171875	-2079.0107421875
0.2995	-0.0	-0.0	-0.0	27.655258178710938	90.61476135253906	-621.2933959960938	34.780067443847656	-96.97179412841795	-696.9779663085938	-35.24663543701172	16.21630096435547	77.08834075927734	-0.0	-0.0	-0.0	134832.4375	-3293.176513671875	-2792.5517578125
0.3	-0.0	-0.0	-0.0	24.63729858398437	92.3914566040039	-624.4950561523438	29.736328125	-99.1795425415039	-696.9424438476562	-35.305301666259766	16.154220581054688	75.72129821777344	-0.0	-0.0	-0.0	133973.578125	-892.6495971679688	-3818.522216796875
0.3005	-0.0	-0.0	-0.0	22.55803108215332	93.92495727539062	-628.0389404296875	24.756319046020508	-102.05115509033205	-697.0991821289062	-35.21862030029297	16.101848602294922	75.69573974609375	-0.0	-0.0	-0.0	133419.84375	1716.5594482421875	-4788.33935546875
0.301	-0.0	-0.0	-0.0	19.57440757751465	96.1437530517578	-631.9232177734375	19.07924461364746	-104.24996948242188	-697.4485473632812	-35.78338623046875	16.01459503173828	75.57477569580078	-0.0	-0.0	-0.0	132792.78125	4587.9794921875	-5854.57763671875
0.3015	-0.0	-0.0	-0.0	16.658973693847656	98.00586700439452	-636.0026245117188	13.904043197631836	-106.33250427246094	-697.2557373046875	-35.496028900146484	16.184988021850586	77.0526123046875	-0.0	-0.0	-0.0	131771.75	7735.3935546875	-6893.7763671875
0.302	-0.0	-0.0	-0.0	13.689104080200195	99.95503997802734	-638.0842895507812	8.868682861328125	-108.0383758544922	-698.80859375	-35.21811294555664	16.183019638061523	76.82122039794922	-0.0	-0.0	-0.0	131302.546875	10649.0634765625	-7951.58837890625
0.3025	-0.0	-0.0	-0.0	11.240524291992188	102.07516479492188	-642.6672973632812	3.7237977981567374	-110.62963104248048	-699.6177368164062	-35.33609771728516	16.355194091796875	76.31329345703125	-0.0	-0.0	-0.0	130506.59375	13776.9013671875	-8942.4423828125
0.303	-0.0	-0.0	-0.0	9.771799087524414	104.25542449951172	-644.2760620117188	-1.8060722351074217	-112.74905395507812	-699.4252319335938	-35.14751434326172	16.144691467285156	76.70199584960938	-0.0	-0.0	-0.0	130066.1328125	16587.396484375	-10139.5966796875
0.3035	-0.0	-0.0	-0.0	7.066812515258789	107.1841049194336	-648.747802734375	-7.44383430480957	-115.49639892578124	-701.67626953125	-35.2768440246582	16.184797286987305	75.29822540283203	-0.0	-0.0	-0.0	129083.25	19527.5546875	-11277.8447265625
0.304	-0.0	-0.0	-0.0	4.528195381164551	109.70020294189452	-651.3829956054688	-12.34165382385254	-118.48831176757812	-701.757080078125	-35.07748031616211	16.104564666748047	76.0800552368164	-0.0	-0.0	-0.0	128419.0078125	22881.880859375	-12158.234375
0.3045	-0.0	-0.0	-0.0	1.8726599216461184	112.18597412109376	-653.3859252929688	-15.859935760498049	-121.1677474975586	-703.4228515625	-35.09769821166992	16.16486358642578	76.35137939453125	-0.0	-0.0	-0.0	127490.7734375	25596.1484375	-12817.5791015625
0.305	-0.0	-0.0	-0.0	-0.0104904472827911	114.82018280029295	-656.3656616210938	-19.280118942260746	-123.660888671875	-704.7815551757812	-35.167015075683594	16.23457145690918	77.01470184326172	-0.0	-0.0	-0.0	126727.6015625	28290.65625	-13446.8134765625
0.3055	-0.0	-0.0	-0.0	-3.2614963054656982	118.77156066894533	-660.4481201171875	-22.80839729309082	-126.074951171875	-705.2479858398438	-34.99809265136719	16.11453628540039	76.07837677001953	-0.0	-0.0	-0.0	126399.265625	30900.27734375	-13977.1376953125
0.306	-0.0	-0.0	-0.0	-6.383559703826904	121.89083099365234	-664.7630004882812	-25.943248748779297	-128.98895263671875	-707.4592895507812	-35.067718505859375	16.384521484375	75.96244049072266	-0.0	-0.0	-0.0	125850.34375	33079.7734375	-14738.2734375
0.3065	-0.0	-0.0	-0.0	-9.396807670593262	125.76290130615234	-668.8441162109375	-28.59447288513184	-130.9614715576172	-711.1444091796875	-35.08738708496094	16.264339447021484	75.61051940917969	-0.0	-0.0	-0.0	125654.015625	35506.59375	-15202.056640625
0.307	-0.0	-0.0	-0.0	-11.795367240905762	128.8821258544922	-671.3536987304688	-30.2994384765625	-133.39511108398438	-714.0150146484375	-35.20623016357422	16.294662475585938	75.84529113769531	-0.0	-0.0	-0.0	125445.9765625	37759.18359375	-15711.4150390625
0.3075	-0.0	-0.0	-0.0	-13.034820556640623	131.96180725097656	-675.5902099609375	-32.270748138427734	-135.2591094970703	-719.4072265625	-35.068790435791016	15.904152870178224	76.5874252319336	-0.0	-0.0	-0.0	125406.125	39732.16015625	-16342.6669921875
0.308	-0.0	-0.0	-0.0	-14.918437004089355	135.00216674804688	-680.381103515625	-34.192989349365234	-137.38938903808594	-724.2557373046875	-35.38594055175781	16.324342727661133	76.19676208496094	-0.0	-0.0	-0.0	125666.8984375	42005.81640625	-17020.33203125
0.3085	-0.0	-0.0	-0.0	-16.57277488708496	136.33895874023438	-685.87548828125	-36.28271484375	-138.98818969726562	-729.6077270507812	-35.20705032348633	16.353792190551758	74.63179016113281	-0.0	-0.0	-0.0	125964.7265625	44231.58984375	-17506.583984375
